SplineFontDB: 1.0
FontName: post_bmr
FullName: post_bmr
FamilyName: post_bmr
Weight: Medium
Copyright: Created by Andrey V. Panov with FontForge 1.0 (http://fontforge.sf.net)
Comments: 2006-5-29: Created.
Version: 1
ItalicAngle: 0
UnderlinePosition: -100
UnderlineWidth: 50
Ascent: 800
Descent: 200
NeedsXUIDChange: 1
XUID: [1021 305 2130962764 6228153]
OS2Version: 0
OS2_WeightWidthSlopeOnly: 0
OS2_UseTypoMetrics: 0
CreationTime: 1148974055
ModificationTime: 1205326733
OS2TypoAscent: 0
OS2TypoAOffset: 1
OS2TypoDescent: 0
OS2TypoDOffset: 1
OS2TypoLinegap: 0
OS2WinAscent: 0
OS2WinAOffset: 1
OS2WinDescent: 0
OS2WinDOffset: 1
HheadAscent: 0
HheadAOffset: 1
HheadDescent: 0
HheadDOffset: 1
OS2Vendor: 'PfEd'
Encoding: UnicodeBmp
UnicodeInterp: none
NameList: Adobe Glyph List
DisplaySize: -48
AntiAlias: 1
FitToEm: 1
WinInfo: 0 16 14
BeginPrivate: 9
BlueValues 31 [-17 0 472 472 672 672 692 711]
OtherBlues 11 [-167 -167]
BlueScale 8 0.039625
BlueFuzz 1 1
StdHW 4 [51]
StdVW 4 [63]
SnapStemH 22 [21 39 51 55 59 61 65]
SnapStemV 16 [50 56 63 70 73]
ExpansionFactor 4 0.06
EndPrivate
BeginChars: 65537 38
StartChar: numbersign
Encoding: 35 35 1
Width: 875
Flags: HMW
HStem: 132 51<78.5 269 93 253 321 491 93 306 558 781> 345 51<78.5 331 93 316 93 368 383 553 621 782>
Fore
59 157 m 0
 59 168 64 183 93 183 c 2
 269 183 l 1
 316 345 l 1
 93 345 l 2
 64 345 59 360 59 370 c 0
 59 381 64 396 93 396 c 2
 331 396 l 1
 408 660 l 2
 410 666 414 694 437 694 c 0
 454 694 462 678 462 669 c 0
 462 665 460 658 459 654 c 2
 383 396 l 1
 568 396 l 1
 645 660 l 2
 647 666 651 694 674 694 c 0
 691 694 699 678 699 669 c 0
 699 665 697 658 696 654 c 2
 621 396 l 1
 782 396 l 2
 811 396 816 383 816 372 c 0
 816 362 811 345 782 345 c 2
 605 345 l 1
 558 183 l 1
 781 183 l 2
 810 183 815 170 815 159 c 0
 815 149 810 132 781 132 c 2
 543 132 l 1
 466 -132 l 2
 464 -138 460 -166 437 -166 c 0
 420 -166 412 -150 412 -141 c 0
 412 -137 414 -130 415 -126 c 2
 491 132 l 1
 306 132 l 1
 229 -132 l 2
 227 -138 223 -166 200 -166 c 0
 183 -166 175 -150 175 -141 c 0
 175 -137 177 -130 178 -126 c 2
 253 132 l 1
 93 132 l 2
 64 132 59 147 59 157 c 0
321 183 m 1
 506 183 l 1
 553 345 l 1
 368 345 l 1
 321 183 l 1
EndSplineSet
EndChar
StartChar: quotesingle
Encoding: 39 39 2
Width: 292
Flags: HMW
VStem: 120 51<386 386>
Fore
113 695 m 1
 178 695 l 1
 171 386 l 1
 120 386 l 1
 113 695 l 1
EndSplineSet
EndChar
StartChar: parenleft
Encoding: 40 40 3
Width: 408
Flags: MW
VStem: 91 64<168 360>
Fore
91 264 m 0
 91 456 153 633 299 750 c 1
 349 750 l 1
 310 714 155 580 155 264 c 0
 155 -52 310 -186 349 -222 c 1
 299 -222 l 1
 153 -105 91 72 91 264 c 0
EndSplineSet
EndChar
StartChar: parenright
Encoding: 41 41 4
Width: 408
Flags: MW
VStem: 252 64<168 360 168 422>
Fore
58 -222 m 1
 97 -186 252 -52 252 264 c 0
 252 580 97 714 58 750 c 1
 108 750 l 1
 254 633 316 456 316 264 c 0
 316 72 254 -105 108 -222 c 1
 58 -222 l 1
EndSplineSet
EndChar
StartChar: asterisk
Encoding: 42 42 5
Width: 525
Flags: MW
HStem: 320 21<255.5 265> 415 21<95.5 110 413.5 427.5> 635 20G<96.5 110 413 427.5> 728 21
VStem: 237 50
Fore
77 441 m 0
 77 465 105 468 236 535 c 1
 78 613 77 610 77 628 c 0
 77 640 89 655 104 655 c 0
 116 655 141 634 248 558 c 1
 244 613 236 716 236 722 c 0
 236 746 255 749 262 749 c 0
 271 749 287 744 287 722 c 0
 287 706 283 667 275 558 c 1
 402 648 407 655 419 655 c 0
 436 655 446 639 446 628 c 0
 446 605 419 602 287 535 c 1
 445 457 446 460 446 441 c 0
 446 429 435 415 420 415 c 0
 407 415 382 436 275 511 c 1
 279 457 287 354 287 348 c 0
 287 324 268 320 262 320 c 0
 249 320 236 329 236 347 c 0
 236 363 240 401 248 511 c 1
 126 425 116 415 104 415 c 0
 87 415 77 431 77 441 c 0
EndSplineSet
EndChar
StartChar: plus
Encoding: 43 43 6
Width: 642
Flags: W
Fore
59 264 m 0
 59 288 82 290 93 290 c 2
 295 290 l 1
 295 491 l 2
 295 509 300 526 321 526 c 0
 331 526 346 521 346 492 c 2
 346 290 l 1
 548 290 l 2
 577 290 582 274 582 264 c 0
 582 241 559 239 550 239 c 2
 346 239 l 1
 346 37 l 2
 346 19 341 2 320 2 c 0
 310 2 295 7 295 36 c 2
 295 239 l 1
 94 239 l 2
 75 239 59 243 59 264 c 0
EndSplineSet
EndChar
StartChar: zero
Encoding: 48 48 7
Width: 525
Flags: HMW
HStem: -17 51<242.5 275> 622 50<252.5 282>
VStem: 52 65<301 336 336 377 293 386.5> 407 65
Fore
52 337 m 0
 52 436 63 611 197 661 c 0
 222 670 243 672 262 672 c 0
 314 672 365 650 399 612 c 0
 469 534 472 396 472 325 c 0
 472 124 420 29 327 -5 c 0
 308 -12 288 -17 262 -17 c 0
 210 -17 160 5 125 43 c 0
 53 122 52 265 52 337 c 0
117 336 m 2
 117 250 118 142 162 84 c 0
 186 53 223 34 262 34 c 0
 306 34 343 58 364 87 c 0
 406 146 408 252 408 338 c 2
 408 376 l 2
 408 422 404 519 365 572 c 0
 340 604 302 622 262 622 c 0
 217 622 178 598 157 569 c 0
 120 516 117 422 117 377 c 2
 117 336 l 2
EndSplineSet
EndChar
StartChar: six
Encoding: 54 54 8
Width: 525
Flags: HMW
HStem: -17 52<222 289.5 208 297.5> 401 50<261 327> 622 50<249 345 249 345>
VStem: 54 71<238.5 284 238.5 423> 404 66<197 253.5 184 268.5>
Fore
54 319 m 0
 54 527 174 672 324 672 c 0
 366 672 393 667 437 653 c 1
 437 601 l 1
 393 616 368 622 322 622 c 0
 159 622 115 436 121 332 c 1
 150 394 217 451 305 451 c 0
 360 451 391 425 419 388 c 0
 458 334 470 287 470 220 c 0
 470 148 453 101 409 51 c 0
 374 12 331 -17 264 -17 c 0
 180 -17 54 43 54 319 c 0
125 243 m 0
 125 234 125 226 126 217 c 0
 132 146 152 35 264 35 c 0
 315 35 347 52 372 86 c 0
 403 128 404 170 404 224 c 0
 404 313 384 401 270 401 c 0
 183 401 125 325 125 243 c 0
EndSplineSet
EndChar
StartChar: nine
Encoding: 57 57 9
Width: 525
Flags: HMW
HStem: -17 52<188 286> 204 51<198.5 263.5> 622 50<238.5 306 236 319>
VStem: 54 66<403.5 455 385 475.5> 400 70<372.5 457.5>
Fore
54 438 m 0
 54 513 76 561 120 607 c 0
 162 652 207 672 265 672 c 0
 347 672 470 618 470 332 c 0
 470 131 356 -17 216 -17 c 0
 160 -17 122 -3 76 29 c 1
 102 75 l 1
 118 64 152 35 215 35 c 0
 383 35 408 246 404 324 c 1
 375 262 308 204 219 204 c 0
 164 204 133 230 106 267 c 0
 66 321 54 369 54 438 c 0
120 427 m 0
 120 343 142 255 255 255 c 0
 342 255 400 330 400 415 c 0
 400 500 373 622 265 622 c 0
 212 622 180 604 154 570 c 0
 121 527 120 483 120 427 c 0
EndSplineSet
EndChar
StartChar: A
Encoding: 65 65 10
Width: 675
Flags: HMW
HStem: 0 21G<29 29 29 94 572 572 572 645> 210 53<195 471 195 491 174 471> 683 20G<299 375 375 375>
VStem: 29 65<0 0> 572 73<0 0>
Fore
29 0 m 1
 299 703 l 1
 375 703 l 1
 645 0 l 1
 572 0 l 1
 491 210 l 1
 174 210 l 1
 94 0 l 1
 29 0 l 1
195 263 m 1
 471 263 l 1
 349 585 l 2
 342 602 333 630 333 630 c 1
 195 263 l 1
EndSplineSet
EndChar
StartChar: B
Encoding: 66 66 11
Width: 687
Flags: HMW
HStem: 0 53<166 299 299 331.5 166 350> 336 50<167 273 273 284 167 167> 641 54<167 284 284 309 167 167>
VStem: 99 67<53 53 53 297 386 605> 534 65<504.5 547.5 504.5 555.5> 562 66<162 228>
Fore
99 0 m 1
 99 695 l 1
 284 695 l 2
 358 695 426 697 500 656 c 0
 560 624 599 575 599 520 c 0xf8
 599 489 583 402 417 363 c 1
 527 349 628 282 628 188 c 0xf4
 628 114 557 0 350 0 c 2
 99 0 l 1
166 53 m 1
 299 53 l 2
 364 53 420 53 484 86 c 0
 513 101 562 135 562 189 c 0xf4
 562 267 466 325 359 334 c 0
 334 337 309 336 284 336 c 2
 167 336 l 1
 167 336 166 317 166 297 c 2
 166 53 l 1
166 386 m 1
 273 386 l 2
 343 386 408 388 474 429 c 0
 512 453 534 486 534 519 c 0xf8
 534 592 426 641 309 641 c 2
 167 641 l 1
 167 641 166 625 166 605 c 2
 166 386 l 1
EndSplineSet
EndChar
StartChar: M
Encoding: 77 77 12
Width: 883
Flags: HMW
HStem: 0 21G<101 164 101 101 717 780 717 717> 675 20G<101 193 193 193 687 780 780 780>
VStem: 101 63<0 630 0 695> 717 63<0 630 630 630>
Fore
101 0 m 1
 101 695 l 1
 193 695 l 1
 395 199 l 2
 414 153 441 81 441 81 c 1
 441 81 448 102 455 121 c 2
 687 695 l 1
 780 695 l 1
 780 0 l 1
 717 0 l 1
 717 630 l 1
 639 430 l 1
 470 17 l 1
 410 17 l 1
 200 534 l 2
 181 580 164 630 164 630 c 1
 164 0 l 1
 101 0 l 1
EndSplineSet
EndChar
StartChar: N
Encoding: 78 78 13
Width: 708
Flags: MW
HStem: 0 21G<100 100 100 163 510 510 510 608> 675 20G<100 198 198 198 545 608 608 608>
VStem: 100 63<0 637 0 695 0 695> 545 63<58 695 0 695>
Fore
100 0 m 1
 100 695 l 1
 198 695 l 1
 545 58 l 1
 545 695 l 1
 608 695 l 1
 608 0 l 1
 510 0 l 1
 163 637 l 1
 163 0 l 1
 100 0 l 1
EndSplineSet
EndChar
StartChar: O
Encoding: 79 79 14
Width: 783
Flags: HMW
HStem: -17 53<316 466 316 481> 659 52<318.5 463.5>
VStem: 58 70<263 444.5 263 451.5> 654 70<263 444.5>
Fore
58 347 m 0
 58 556 211 711 391 711 c 0
 571 711 724 556 724 347 c 0
 724 138 571 -17 391 -17 c 0
 211 -17 58 138 58 347 c 0
128 347 m 0
 128 179 241 36 391 36 c 0
 541 36 654 179 654 347 c 0
 654 542 536 659 391 659 c 0
 246 659 128 542 128 347 c 0
EndSplineSet
EndChar
StartChar: P
Encoding: 80 80 15
Width: 658
Flags: HMW
HStem: 0 21G<98 168 98 98> 295 52<168 304 304 325 167 342 168 168> 641 54<167 336 336 341 167 167>
VStem: 98 70<0 295 0 695> 533 66<475 527 455 538>
Fore
98 0 m 1
 98 695 l 1
 336 695 l 2
 391 695 439 689 493 659 c 0
 558 622 599 560 599 494 c 0
 599 416 528 295 342 295 c 2
 168 295 l 1
 168 0 l 1
 98 0 l 1
167 347 m 1
 304 347 l 2
 346 347 394 345 445 367 c 0
 517 398 533 456 533 494 c 0
 533 582 459 641 341 641 c 2
 167 641 l 1
 167 347 l 1
EndSplineSet
EndChar
StartChar: R
Encoding: 82 82 16
Width: 671
Flags: HMW
HStem: 0 21G<98 167 98 98 571 641 571 571> 322 51<167 313 313 339.5 167 355 167 313> 641 54<167 328 328 344 167 167>
VStem: 98 69<0 322 0 373 373 641> 546 65<484 544.5 464 547>
Fore
98 0 m 1
 98 695 l 1
 328 695 l 2
 538 695 611 582 611 507 c 0
 611 421 523 348 418 330 c 1
 641 0 l 1
 571 0 l 1
 355 322 l 1
 167 322 l 1
 167 0 l 1
 98 0 l 1
167 373 m 1
 313 373 l 2
 366 373 437 373 493 411 c 0
 517 428 546 461 546 507 c 0
 546 587 466 641 344 641 c 2
 167 641 l 1
 167 373 l 1
EndSplineSet
EndChar
StartChar: T
Encoding: 84 84 17
Width: 725
Flags: MW
HStem: 0 21G<327 397 327 327> 639 53<38 686 38 327 397 397 397 686>
VStem: 327 70<0 639 0 639>
Fore
38 639 m 1
 38 692 l 1
 686 692 l 1
 686 639 l 1
 397 639 l 1
 397 0 l 1
 327 0 l 1
 327 639 l 1
 38 639 l 1
EndSplineSet
EndChar
StartChar: W
Encoding: 87 87 18
Width: 967
Flags: MW
HStem: -5 21G<226 296 226 226 667 739 667 667> 675 20G<14 82 82 82 449 519 519 519 890 951 951 951>
Fore
14 695 m 1
 82 695 l 1
 209 271 l 2
 245 148 257 107 266 65 c 1
 266 65 270 89 276 108 c 2
 330 296 l 1
 449 695 l 1
 519 695 l 1
 629 333 l 2
 660 226 693 119 705 65 c 1
 713 110 736 176 768 288 c 2
 890 695 l 1
 951 695 l 1
 739 -5 l 1
 667 -5 l 1
 667 -5 596 217 514 506 c 2
 486 605 l 2
 482 619 481 630 481 630 c 1
 481 630 479 611 473 592 c 2
 422 416 l 1
 296 -5 l 1
 226 -5 l 1
 14 695 l 1
EndSplineSet
EndChar
StartChar: Upsilon
Encoding: 933 933 22
Width: 817
Flags: HMW
HStem: 0 21G<373 443 373 373> 555 21<58 123 58 58 693 758 693 693> 659 52<203.5 294.5 177.5 304 521.5 612.5>
VStem: 58 65<555 555> 373 70<0 277 0 323> 693 65<555 555>
CounterMasks: 1 00
Fore
58 555 m 1
 61 651 136 711 219 711 c 0
 370 711 401 520 408 464 c 1
 415 519 446 711 597 711 c 0
 684 711 756 647 758 555 c 1
 693 555 l 1
 688 642 627 659 598 659 c 0
 426 659 443 369 443 277 c 2
 443 0 l 1
 373 0 l 1
 373 277 l 2
 373 369 390 659 218 659 c 0
 189 659 128 638 123 555 c 1
 58 555 l 1
EndSplineSet
EndChar
StartChar: alpha
Encoding: 945 945 23
Width: 665
Flags: HMW
HStem: -8 62<211 273> 419 61<211.5 277.5>
VStem: 43 65<167 304> 382 72<176 187>
Fore
43 236 m 0
 43 372 131 480 238 480 c 0
 351 480 399 354 426 269 c 1
 455 345 l 2
 474 397 500 480 500 480 c 1
 565 480 l 1
 527 364 509 304 458 192 c 0
 455 186 454 182 454 178 c 0
 454 174 455 171 457 165 c 0
 475 113 500 55 533 55 c 0
 546 55 551 60 554 74 c 1
 619 74 l 1
 616 18 574 -8 534 -8 c 0
 445 -8 415 103 409 106 c 1
 365 37 307 -8 239 -8 c 0
 134 -8 43 98 43 236 c 0
108 235 m 0
 108 87 185 54 237 54 c 0
 317 54 369 153 381 174 c 0
 382 176 382 182 382 183 c 0
 382 191 379 199 373 221 c 0
 345 317 318 419 237 419 c 0
 186 419 108 386 108 235 c 0
EndSplineSet
EndChar
StartChar: eta
Encoding: 951 951 24
Width: 540
Flags: HMW
HStem: -167 21G<431 495 431 431> 0 21G<134 199 134 134> 425 64<292 337.5>
VStem: 29 62<396 396> 134 65<0 263 0 297 0 338> 431 64<-167 252 -167 272 -167 329>
Fore
29 396 m 1
 31 455 71 489 113 489 c 0
 177 489 188 421 193 396 c 1
 206 422 248 489 331 489 c 0
 421 489 485 407 494 307 c 0
 496 289 495 270 495 252 c 2
 495 -167 l 1
 431 -167 l 1
 431 272 l 2
 431 386 361 425 314 425 c 0
 270 425 219 388 203 322 c 0
 199 303 199 283 199 263 c 2
 199 0 l 1
 134 0 l 1
 134 297 l 2
 134 379 129 426 111 426 c 0
 107 426 94 424 91 396 c 1
 29 396 l 1
EndSplineSet
EndChar
StartChar: xi
Encoding: 958 958 25
Width: 496
Flags: HMW
HStem: -129 62<278 315> 0 65 425 64<301 387> 614 59 690 21
VStem: 43 65<177 258.5> 127 50<525.5 560.5> 386 65<-46 -19>
Fore
43 212 m 0
 43 305 94 387 198 445 c 1
 169 457 127 483 127 545 c 0
 127 576 141 596 156 614 c 1
 69 625 59 673 58 710 c 1
 122 710 l 1
 125 691 133 672 190 672 c 0
 254 672 375 707 397 710 c 1
 412 648 l 1
 241 605 255 623 220 608 c 0
 188 593 177 573 177 550 c 0
 177 501 215 489 387 489 c 1
 387 425 l 1
 237 423 108 340 108 214 c 0
 108 140 156 83 217 68 c 0
 255 59 451 80 451 -32 c 0
 451 -71 421 -128 278 -129 c 1
 278 -67 l 1
 352 -67 386 -60 386 -32 c 0
 386 -6 337 0 256 0 c 0
 113 0 43 113 43 212 c 0
EndSplineSet
EndChar
StartChar: chi
Encoding: 967 967 26
Width: 583
Flags: HMW
HStem: -177 65<485.5 516.5> 417 66<64.5 86.5>
VStem: 254 73<150 155>
Fore
43 -175 m 1
 254 155 l 1
 175 353 118 417 55 417 c 0
 51 417 47 416 43 416 c 1
 43 480 l 1
 52 482 60 483 69 483 c 0
 149 483 212 402 269 283 c 0
 278 263 288 243 296 222 c 1
 462 480 l 1
 538 480 l 1
 327 150 l 1
 382 14 446 -112 525 -112 c 0
 529 -112 535 -111 539 -110 c 1
 539 -175 l 1
 530 -176 521 -177 512 -177 c 0
 424 -177 361 -79 313 22 c 0
 303 42 293 63 285 84 c 1
 119 -175 l 1
 43 -175 l 1
EndSplineSet
EndChar
StartChar: afii10038
Encoding: 1060 1060 27
Width: 875
Flags: HMW
HStem: 0 21G<404 472 404 404> 105 50<337.5 404 337.5 404 472 538.5> 568 50<337.5 404 472 538.5>
VStem: 58 69<275 447 275 464.5> 404 68<0 105 0 105 155 568 618 695> 749 68<275 447>
Fore
58 361 m 0
 58 568 235 618 404 618 c 1
 404 695 l 1
 472 695 l 1
 472 618 l 1
 641 618 817 568 817 361 c 0
 817 154 641 105 472 105 c 1
 472 0 l 1
 404 0 l 1
 404 105 l 1
 235 105 58 154 58 361 c 0
127 361 m 0
 127 189 271 155 404 155 c 1
 404 568 l 1
 271 568 127 533 127 361 c 0
472 155 m 1
 605 155 749 189 749 361 c 0
 749 533 605 568 472 568 c 1
 472 155 l 1
EndSplineSet
EndChar
StartChar: afii10042
Encoding: 1064 1064 28
Width: 1102
Flags: MW
HStem: 0 55<165 518 584 937> 675 20<99 165 165 165 518 584 584 584 937 1003 1003 1003>
VStem: 99 66<55 695 55 695 55 695> 518 66<55 695 55 695> 937 66<55 695 0 695>
CounterMasks: 1 00
Fore
99 0 m 1
 99 695 l 1
 165 695 l 1
 165 55 l 1
 518 55 l 1
 518 695 l 1
 584 695 l 1
 584 55 l 1
 937 55 l 1
 937 695 l 1
 1003 695 l 1
 1003 0 l 1
 99 0 l 1
EndSplineSet
EndChar
StartChar: afii10043
Encoding: 1065 1065 29
Width: 1108
Flags: MW
HStem: -167 20 0 55<165 518 584 937 1003 1013> 675 20<99 165 165 165 518 584 584 584 937 1003 1003 1003>
VStem: 99 66<55 695 55 695 55 695> 518 66<55 695 55 695> 937 66<55 695 55 695> 1013 56<-167 0 0 0>
Fore
99 0 m 1
 99 695 l 1
 165 695 l 1
 165 55 l 1
 518 55 l 1
 518 695 l 1
 584 695 l 1
 584 55 l 1
 937 55 l 1
 937 695 l 1
 1003 695 l 1
 1003 55 l 1
 1069 55 l 1
 1069 -167 l 1
 1013 -167 l 1
 1013 0 l 1
 99 0 l 1
EndSplineSet
EndChar
StartChar: afii10067
Encoding: 1074 1074 30
Width: 492
Flags: HMW
HStem: 0 50<141 221 221 252> 240 40<142 169 141 203 142 142> 423 49<142 230 142 142>
VStem: 80 62<240 240> 373 59<343 370 338.5 388> 395 60<128.5 152 123.5 168.5>
Fore
80 0 m 1
 80 472 l 1xf4
 248 472 l 2
 304 472 368 473 405 433 c 0
 423 413 432 382 432 358 c 0xf8
 432 319 409 291 312 260 c 1
 448 219 455 164 455 140 c 0
 455 107 445 68 419 42 c 0
 377 0 311 0 252 0 c 2
 80 0 l 1
141 50 m 1
 221 50 l 2
 284 50 332 52 365 77 c 0
 384 92 395 116 395 141 c 0xf4
 395 196 327 232 255 239 c 0
 238 240 220 240 203 240 c 2
 142 240 l 1
 142 240 141 221 141 211 c 2
 141 50 l 1
141 280 m 1
 197 280 261 276 327 305 c 0
 356 317 373 331 373 355 c 0
 373 421 285 423 230 423 c 2
 142 423 l 1
 142 423 141 400 141 370 c 2
 141 280 l 1
EndSplineSet
EndChar
StartChar: afii10072
Encoding: 1078 1078 31
Width: 750
Flags: MW
HStem: 0 21G<16 16 16 86 344 344 344 404 662 662 662 732>
VStem: 344 60<0 166 0 166 245 472>
Fore
16 0 m 1
 217 293 l 1
 40 472 l 1
 119 472 l 1
 344 245 l 1
 344 472 l 1
 404 472 l 1
 404 245 l 1
 629 472 l 1
 708 472 l 1
 531 293 l 1
 732 0 l 1
 662 0 l 1
 490 252 l 1
 404 166 l 1
 404 0 l 1
 344 0 l 1
 344 166 l 1
 258 252 l 1
 86 0 l 1
 16 0 l 1
EndSplineSet
EndChar
StartChar: afii10076
Encoding: 1082 1082 32
Width: 487
Flags: MW
HStem: 0 21G<81 81 81 141 399 399 399 469> 452 20G<81 141 141 141 366 445 445 445>
VStem: 81 60<0 166 245 472>
Fore
81 0 m 1
 81 472 l 1
 141 472 l 1
 141 245 l 1
 366 472 l 1
 445 472 l 1
 268 293 l 1
 469 0 l 1
 399 0 l 1
 227 252 l 1
 141 166 l 1
 141 0 l 1
 81 0 l 1
EndSplineSet
EndChar
StartChar: afii10078
Encoding: 1084 1084 33
Width: 667
Flags: MW
HStem: 0 21G<81 81 81 144 522 522 522 585>
VStem: 81 63<0 408 0 472> 522 63<0 408 408 408>
Fore
81 0 m 1
 81 472 l 1
 172 472 l 1
 332 79 l 1
 334 79 l 1
 494 472 l 1
 585 472 l 1
 585 0 l 1
 522 0 l 1
 522 408 l 1
 495 333 l 1
 361 8 l 1
 305 8 l 1
 171 333 l 1
 144 408 l 1
 144 0 l 1
 81 0 l 1
EndSplineSet
EndChar
StartChar: afii10086
Encoding: 1092 1092 34
Width: 779
Flags: HMW
HStem: -167 21G<357 421 357 357> -8 50<228 266.5 511.5 550> 429 51<523.5 552.5> 675 20G<357 421 421 421>
VStem: 46 65<177 292 177 311.5> 357 64<-167 62 -167 62 123 358 413 695> 667 65<177 292>
Fore
46 236 m 0
 46 387 140 480 229 480 c 0
 280 480 323 456 357 413 c 1
 357 695 l 1
 421 695 l 1
 421 413 l 1
 452 455 498 480 549 480 c 0
 638 480 732 387 732 236 c 0
 732 100 646 -8 542 -8 c 0
 481 -8 443 30 421 62 c 1
 421 -167 l 1
 357 -167 l 1
 357 62 l 1
 335 30 297 -8 236 -8 c 0
 132 -8 46 100 46 236 c 0
111 236 m 0
 111 118 190 42 266 42 c 0
 320 42 357 91 357 123 c 2
 357 358 l 2
 357 383 319 428 266 428 c 0
 187 428 111 348 111 236 c 0
421 123 m 2
 421 91 458 42 512 42 c 0
 588 42 667 118 667 236 c 0
 667 348 592 429 513 429 c 0
 460 429 421 383 421 358 c 2
 421 123 l 2
EndSplineSet
EndChar
StartChar: uni046F
Encoding: 1135 1135 35
Width: 450
Flags: HMW
HStem: 0 21 241 39 430 50<205 212 205 280.5>
VStem: 40 62<-112 -72 -115.5 -54> 343 65<341.5 371.5> 373 58<100.5 170>
Fore
36 364 m 1
 69 460 166 475 212 480 c 1
 205 480 l 2
 187 481 197 477 81 552 c 2
 42 578 l 1
 92 578 l 1
 224 500 l 1
 379 585 357 578 385 578 c 2
 415 578 l 1
 277 493 l 2
 255 480 257 482 248 480 c 1
 385 479 408 406 408 356 c 0xf8
 408 320 383 290 329 265 c 1
 380 246 431 213 431 134 c 0
 431 39 349 12 283 -8 c 0
 141 -49 102 -50 102 -94 c 0
 102 -137 146 -139 146 -139 c 1
 111 -175 l 1
 57 -172 40 -128 40 -96 c 0
 40 -12 132 4 152 10 c 0
 295 51 373 61 373 140 c 0xf4
 373 200 329 240 219 240 c 2
 126 240 l 1
 126 280 l 1
 183 280 l 2
 310 280 343 326 343 357 c 0
 343 386 328 430 233 430 c 0
 166 430 116 409 96 359 c 1
 36 364 l 1
EndSplineSet
EndChar
StartChar: uni048E
Encoding: 1166 1166 36
Width: 658
Flags: HMW
HStem: 0 21G<98 168 98 98> 295 52<168 306 168 168> 641 54<167 333 167 167>
VStem: 98 70<0 295 0 695> 533 66<474.5 523.5>
Fore
98 0 m 1
 98 695 l 1
 336 695 l 2
 395 695 437 687 481 665 c 0
 529 641 599 584 599 494 c 0
 599 395 512 342 489 329 c 1
 598 237 l 1
 565 198 l 1
 436 307 l 1
 385 293 353 295 306 295 c 2
 168 295 l 1
 168 0 l 1
 98 0 l 1
167 347 m 1
 347 347 l 2
 361 347 384 350 384 350 c 1
 304 418 l 1
 338 456 l 1
 444 366 l 1
 517 399 533 455 533 494 c 0
 533 553 495 641 333 641 c 2
 167 641 l 1
 167 347 l 1
EndSplineSet
EndChar
StartChar: Tilde
Encoding: 61429 61429 37
Width: 525
Flags: MW
HStem: 505 51<303 364.5 303 368> 616 51<159.5 221>
VStem: 87 50<505 553.5> 387 50<618.5 667>
Fore
87 505 m 1
 87 602 126 667 186 667 c 0
 256 667 270 556 336 556 c 0
 393 556 383 641 387 667 c 1
 437 667 l 1
 437 570 398 505 338 505 c 0
 268 505 254 616 188 616 c 0
 131 616 139 523 137 505 c 1
 87 505 l 1
EndSplineSet
EndChar
